# xmcd
#
# Track frame offsets:
#	150
#	2333
#	17812
#	33701
#	47617
#	66242
#	82981
#	107033
#	125320
#	145093
#
# Disc length: 2167 seconds
#
# Revision: 1
# Processed by: cddbd v1.5.1PL0 Copyright (c) Steve Scherf et al.
# Submitted via: audiograbber 1.83.01
#
DISCID=7808750a
DTITLE=Ricardo Rodriguez - En Navidad
DYEAR=2003
DGENRE=
TTITLE0=Campanas
TTITLE1=Aquel Niño, Aquel Cordero
TTITLE2=Son Navideño
TTITLE3=Oh Pueblecito De Belen
TTITLE4=Empezar De Nuevo
TTITLE5=Niño Del Tambor, Venid Fieles Todos
TTITLE6=Santa La Noche
TTITLE7=Al Mundo Paz
TTITLE8=Medley
TTITLE9=Emmanuel
EXTD=
EXTT0=
EXTT1=
EXTT2=
EXTT3=
EXTT4=
EXTT5=
EXTT6=
EXTT7=
EXTT8=
EXTT9=
PLAYORDER=
